<svg width="83" height="83" viewBox="0 0 83 83" fill="none" xmlns="http://www.w3.org/2000/svg">
<path d="M41.322 7.10175C22.469 7.10175 7.13086 22.4399 7.13086 41.2929C7.13086 60.1459 22.469 75.484 41.322 75.484C60.175 75.484 75.5131 60.1459 75.5131 41.2929C75.5131 22.4399 60.175 7.10175 41.322 7.10175ZM13.9691 41.2929C13.9691 38.2191 14.5025 35.2684 15.4427 32.5092L20.8073 37.8738L27.6455 44.712V51.5502L34.4838 58.3884L37.9029 61.8075V68.4099C24.435 66.7174 13.9691 55.2155 13.9691 41.2929ZM62.965 57.9542C60.7323 56.1558 57.3474 54.9693 54.9984 54.9693V51.5502C54.9984 49.7366 54.278 47.9973 52.9956 46.7149C51.7131 45.4324 49.9738 44.712 48.1602 44.712H34.4838V34.4546C36.2974 34.4546 38.0367 33.7342 39.3191 32.4518C40.6015 31.1694 41.322 29.43 41.322 27.6164V24.1973H44.7411C46.5547 24.1973 48.294 23.4769 49.5765 22.1944C50.8589 20.912 51.5793 19.1727 51.5793 17.3591V15.9538C61.5905 20.0192 68.6749 29.8388 68.6749 41.2929C68.6743 47.3266 66.6654 53.1884 62.965 57.9542Z" fill="#FB8500"/>
</svg>
