<svg width="64" height="73" viewBox="0 0 64 73" fill="none" xmlns="http://www.w3.org/2000/svg">
<g clip-path="url(#clip0_1_2464)">
<path d="M57.3287 51.2805V46.8387C57.1259 44.8017 56.2732 42.9211 54.9332 41.5557C53.5931 40.1903 51.8595 39.4357 50.063 39.4357C48.2666 39.4357 46.533 40.1903 45.1929 41.5557C43.8529 42.9211 43.0002 44.8017 42.7974 46.8387V51.2805C41.9896 51.3428 41.2289 51.7372 40.6564 52.3906C40.0838 53.0439 39.7382 53.912 39.6836 54.8339V65.1981C39.6871 66.1678 40.0087 67.1008 40.585 67.8133C41.1614 68.5259 41.9507 68.9662 42.7974 69.0476H57.0692C57.9189 69.0436 58.7365 68.6766 59.3609 68.0189C59.9853 67.3612 60.3711 66.4605 60.4425 65.4942V55.13C60.439 54.1603 60.1174 53.2273 59.541 52.5148C58.9647 51.8022 58.1754 51.3619 57.3287 51.2805ZM46.1707 46.8387C46.1949 46.2903 46.3161 45.7531 46.5269 45.2595C46.7377 44.766 47.0338 44.3261 47.3974 43.9665C47.761 43.6069 48.1846 43.3349 48.6427 43.167C49.1008 42.999 49.5839 42.9385 50.063 42.9891C50.5422 42.9385 51.0253 42.999 51.4834 43.167C51.9415 43.3349 52.3651 43.6069 52.7287 43.9665C53.0923 44.3261 53.3884 44.766 53.5992 45.2595C53.81 45.7531 53.9311 46.2903 53.9553 46.8387V51.2805H46.1707V46.8387Z" fill="#FB8500"/>
<path d="M63.0374 33.5132V6.86246C63.0374 5.29174 62.4907 3.78536 61.5174 2.67469C60.5441 1.56403 59.2241 0.940063 57.8477 0.940063L5.95047 0.940063C4.57407 0.940063 3.25404 1.56403 2.28078 2.67469C1.30752 3.78536 0.760742 5.29174 0.760742 6.86246L0.760742 60.164C0.760742 61.7347 1.30752 63.2411 2.28078 64.3517C3.25404 65.4624 4.57407 66.0864 5.95047 66.0864H34.4939V60.164H5.95047V6.86246H57.8477V33.5132" fill="#FB8500"/>
<path d="M16.3303 12.7848H11.1406V18.7072H16.3303V12.7848ZM52.6584 12.7848H21.5201V18.7072H52.6584V12.7848ZM34.4944 48.3191H21.5201V54.2415H34.4944V48.3191ZM16.3303 48.3191H11.1406V54.2415H16.3303V48.3191ZM26.7098 24.6296H21.5201V30.552H26.7098V24.6296ZM52.6584 24.6296H31.8995V30.552H52.6584V24.6296ZM39.1859 36.4744H31.8995V42.3968H37.6082V40.9162C37.6356 39.2641 38.1975 37.6819 39.1859 36.4744ZM26.7098 36.4744H21.5201V42.3968H26.7098V36.4744Z" fill="#FB8500"/>
</g>
<defs>
<clipPath id="clip0_1_2464">
<rect width="62.2767" height="71.0687" fill="white" transform="translate(0.760742 0.940063)"/>
</clipPath>
</defs>
</svg>
