<svg width="86" height="69" viewBox="0 0 86 69" fill="none" xmlns="http://www.w3.org/2000/svg">
<g clip-path="url(#clip0_1_2479)">
<path d="M83.7475 47.587H81.6227V33.2008C81.6227 31.5106 80.9455 29.887 79.7503 28.6893L66.484 15.3944C65.2888 14.1967 63.6687 13.5179 61.9822 13.5179H56.1259V7.13001C56.1259 3.60333 53.2708 0.742065 49.7517 0.742065H15.756C12.2369 0.742065 9.38175 3.60333 9.38175 7.13001V13.5179H1.94518C1.36088 13.5179 0.882812 13.997 0.882812 14.5826V16.7119C0.882812 17.2975 1.36088 17.7766 1.94518 17.7766H38.0657C38.65 17.7766 39.128 18.2557 39.128 18.8412V20.9705C39.128 21.5561 38.65 22.0352 38.0657 22.0352H6.19465C5.61035 22.0352 5.13228 22.5143 5.13228 23.0999V25.2292C5.13228 25.8147 5.61035 26.2938 6.19465 26.2938H33.8162C34.4005 26.2938 34.8786 26.7729 34.8786 27.3585V29.4878C34.8786 30.0734 34.4005 30.5525 33.8162 30.5525H1.94518C1.36088 30.5525 0.882812 31.0316 0.882812 31.6171V33.7464C0.882812 34.332 1.36088 34.8111 1.94518 34.8111H29.5667C30.151 34.8111 30.6291 35.2902 30.6291 35.8757V38.0051C30.6291 38.5906 30.151 39.0697 29.5667 39.0697H9.38175V56.1042C9.38175 63.1576 15.092 68.8801 22.1302 68.8801C29.1683 68.8801 34.8786 63.1576 34.8786 56.1042H51.8764C51.8764 63.1576 57.5867 68.8801 64.6248 68.8801C71.663 68.8801 77.3733 63.1576 77.3733 56.1042H83.7475C84.9161 56.1042 85.8722 55.146 85.8722 53.9749V49.7163C85.8722 48.5452 84.9161 47.587 83.7475 47.587ZM22.1302 62.4922C18.6111 62.4922 15.756 59.6309 15.756 56.1042C15.756 52.5775 18.6111 49.7163 22.1302 49.7163C25.6492 49.7163 28.5044 52.5775 28.5044 56.1042C28.5044 59.6309 25.6492 62.4922 22.1302 62.4922ZM64.6248 62.4922C61.1058 62.4922 58.2506 59.6309 58.2506 56.1042C58.2506 52.5775 61.1058 49.7163 64.6248 49.7163C68.1439 49.7163 70.999 52.5775 70.999 56.1042C70.999 59.6309 68.1439 62.4922 64.6248 62.4922ZM75.2485 34.8111H56.1259V19.9059H61.9822L75.2485 33.2008V34.8111Z" fill="#FB8500"/>
</g>
<defs>
<clipPath id="clip0_1_2479">
<rect width="84.9894" height="68.138" fill="white" transform="translate(0.882812 0.742065)"/>
</clipPath>
</defs>
</svg>
