<svg width="30" height="30" viewBox="0 0 30 30" fill="none" xmlns="http://www.w3.org/2000/svg">
<path d="M21.6667 3.33341C21.6667 2.41295 22.4129 1.66675 23.3334 1.66675H26.6667C27.5872 1.66675 28.3334 2.41295 28.3334 3.33341V10.0001C28.3334 10.9205 27.5872 11.6667 26.6667 11.6667H23.3334C22.4129 11.6667 21.6667 10.9205 21.6667 10.0001V3.33341ZM1.66675 20.0001C1.66675 19.0796 2.41295 18.3334 3.33341 18.3334H6.66675C7.58722 18.3334 8.33342 19.0796 8.33342 20.0001V26.6667C8.33342 27.5872 7.58722 28.3334 6.66675 28.3334H3.33341C2.41295 28.3334 1.66675 27.5872 1.66675 26.6667V20.0001ZM1.66675 3.33341C1.66675 2.41295 2.41295 1.66675 3.33341 1.66675H13.3334C14.2539 1.66675 15.0001 2.41295 15.0001 3.33341V10.0001C15.0001 10.9205 14.2539 11.6667 13.3334 11.6667H3.33341C2.41295 11.6667 1.66675 10.9205 1.66675 10.0001V3.33341ZM15.0001 20.0001C15.0001 19.0796 15.7462 18.3334 16.6667 18.3334H26.6667C27.5872 18.3334 28.3334 19.0796 28.3334 20.0001V26.6667C28.3334 27.5872 27.5872 28.3334 26.6667 28.3334H16.6667C15.7462 28.3334 15.0001 27.5872 15.0001 26.6667V20.0001Z" stroke="black" stroke-width="2" stroke-linecap="round" stroke-linejoin="round"/>
</svg>
