<svg width="177" height="72" viewBox="0 0 177 72" fill="none" xmlns="http://www.w3.org/2000/svg">
<path d="M57 15C57 11.7 54.3 9 51 9H42V15H51V22.95L40.5 36H30V21H18C11.37 21 6 26.37 6 33V42H12C12 46.98 16.02 51 21 51C25.98 51 30 46.98 30 42H43.5L57 25.05V15ZM21 45C19.35 45 18 43.65 18 42H24C24 43.65 22.65 45 21 45ZM15 12H30V18H15V12ZM57 33C52.02 33 48 37.02 48 42C48 46.98 52.02 51 57 51C61.98 51 66 46.98 66 42C66 37.02 61.98 33 57 33ZM57 45C55.35 45 54 43.65 54 42C54 40.35 55.35 39 57 39C58.65 39 60 40.35 60 42C60 43.65 58.65 45 57 45ZM21 60H33V54L51 63H39V69L21 60Z" fill="#FB8500"/>
<path d="M86.0227 47.5V24.2273H95.2045C96.9621 24.2273 98.4621 24.5417 99.7045 25.1705C100.955 25.7917 101.905 26.6742 102.557 27.8182C103.216 28.9545 103.545 30.2917 103.545 31.8295C103.545 33.375 103.212 34.7045 102.545 35.8182C101.879 36.9242 100.913 37.7727 99.6477 38.3636C98.3902 38.9545 96.8674 39.25 95.0795 39.25H88.9318V35.2955H94.2841C95.2235 35.2955 96.0038 35.1667 96.625 34.9091C97.2462 34.6515 97.7083 34.2652 98.0114 33.75C98.322 33.2348 98.4773 32.5947 98.4773 31.8295C98.4773 31.0568 98.322 30.4053 98.0114 29.875C97.7083 29.3447 97.2424 28.9432 96.6136 28.6705C95.9924 28.3902 95.2083 28.25 94.2614 28.25H90.9432V47.5H86.0227ZM98.5909 36.9091L104.375 47.5H98.9432L93.2841 36.9091H98.5909ZM110.17 54.0455C109.557 54.0455 108.981 53.9962 108.443 53.8977C107.913 53.8068 107.473 53.6894 107.125 53.5455L108.216 49.9318C108.784 50.1061 109.295 50.2008 109.75 50.2159C110.212 50.2311 110.61 50.125 110.943 49.8977C111.284 49.6705 111.561 49.2841 111.773 48.7386L112.057 48L105.795 30.0455H110.886L114.5 42.8636H114.682L118.33 30.0455H123.455L116.67 49.3864C116.345 50.3258 115.902 51.1439 115.341 51.8409C114.788 52.5455 114.087 53.0871 113.239 53.4659C112.39 53.8523 111.367 54.0455 110.17 54.0455ZM132.051 47.7841C130.725 47.7841 129.525 47.4432 128.449 46.7614C127.381 46.072 126.532 45.0606 125.903 43.7273C125.282 42.3864 124.972 40.7424 124.972 38.7955C124.972 36.7955 125.294 35.1326 125.938 33.8068C126.581 32.4735 127.438 31.4773 128.506 30.8182C129.581 30.1515 130.759 29.8182 132.04 29.8182C133.017 29.8182 133.831 29.9848 134.483 30.3182C135.142 30.6439 135.672 31.053 136.074 31.5455C136.483 32.0303 136.794 32.5076 137.006 32.9773H137.153V24.2273H141.983V47.5H137.21V44.7045H137.006C136.778 45.1894 136.456 45.6705 136.04 46.1477C135.631 46.6174 135.097 47.0076 134.438 47.3182C133.786 47.6288 132.991 47.7841 132.051 47.7841ZM133.585 43.9318C134.366 43.9318 135.025 43.7197 135.562 43.2955C136.108 42.8636 136.525 42.2614 136.812 41.4886C137.108 40.7159 137.256 39.8106 137.256 38.7727C137.256 37.7348 137.112 36.8333 136.824 36.0682C136.536 35.303 136.119 34.7121 135.574 34.2955C135.028 33.8788 134.366 33.6705 133.585 33.6705C132.79 33.6705 132.119 33.8864 131.574 34.3182C131.028 34.75 130.616 35.3485 130.335 36.1136C130.055 36.8788 129.915 37.7652 129.915 38.7727C129.915 39.7879 130.055 40.6856 130.335 41.4659C130.623 42.2386 131.036 42.8447 131.574 43.2841C132.119 43.7159 132.79 43.9318 133.585 43.9318ZM154.168 47.8409C152.372 47.8409 150.827 47.4773 149.531 46.75C148.243 46.0152 147.251 44.9773 146.554 43.6364C145.857 42.2879 145.509 40.6932 145.509 38.8523C145.509 37.0568 145.857 35.4811 146.554 34.125C147.251 32.7689 148.232 31.7121 149.497 30.9545C150.77 30.197 152.262 29.8182 153.974 29.8182C155.126 29.8182 156.198 30.0038 157.19 30.375C158.19 30.7386 159.062 31.2879 159.804 32.0227C160.554 32.7576 161.137 33.6818 161.554 34.7955C161.971 35.9015 162.179 37.197 162.179 38.6818V40.0114H147.44V37.0114H157.622C157.622 36.3144 157.471 35.697 157.168 35.1591C156.865 34.6212 156.444 34.2008 155.906 33.8977C155.376 33.5871 154.759 33.4318 154.054 33.4318C153.319 33.4318 152.668 33.6023 152.099 33.9432C151.539 34.2765 151.099 34.7273 150.781 35.2955C150.463 35.8561 150.3 36.4811 150.293 37.1705V40.0227C150.293 40.8864 150.452 41.6326 150.77 42.2614C151.096 42.8902 151.554 43.375 152.145 43.7159C152.736 44.0568 153.437 44.2273 154.247 44.2273C154.785 44.2273 155.277 44.1515 155.724 44C156.171 43.8485 156.554 43.6212 156.872 43.3182C157.19 43.0152 157.433 42.6439 157.599 42.2045L162.077 42.5C161.849 43.5758 161.384 44.5152 160.679 45.3182C159.982 46.1136 159.08 46.7348 157.974 47.1818C156.876 47.6212 155.607 47.8409 154.168 47.8409ZM165.588 47.5V30.0455H170.281V33.0909H170.463C170.781 32.0076 171.315 31.1894 172.065 30.6364C172.815 30.0758 173.679 29.7955 174.656 29.7955C174.899 29.7955 175.16 29.8106 175.44 29.8409C175.721 29.8712 175.967 29.9129 176.179 29.9659V34.2614C175.952 34.1932 175.637 34.1326 175.236 34.0795C174.834 34.0265 174.467 34 174.134 34C173.421 34 172.785 34.1553 172.224 34.4659C171.671 34.7689 171.232 35.1932 170.906 35.7386C170.588 36.2841 170.429 36.9129 170.429 37.625V47.5H165.588Z" fill="#1A1A1A"/>
</svg>
