<svg width="72" height="72" viewBox="0 0 72 72" fill="none" xmlns="http://www.w3.org/2000/svg">
<g id="mdi:delivery-dining-electric">
<path id="Vector" d="M57 15C57 11.7 54.3 9 51 9H42V15H51V22.95L40.5 36H30V21H18C11.37 21 6 26.37 6 33V42H12C12 46.98 16.02 51 21 51C25.98 51 30 46.98 30 42H43.5L57 25.05V15ZM21 45C19.35 45 18 43.65 18 42H24C24 43.65 22.65 45 21 45ZM15 12H30V18H15V12ZM57 33C52.02 33 48 37.02 48 42C48 46.98 52.02 51 57 51C61.98 51 66 46.98 66 42C66 37.02 61.98 33 57 33ZM57 45C55.35 45 54 43.65 54 42C54 40.35 55.35 39 57 39C58.65 39 60 40.35 60 42C60 43.65 58.65 45 57 45ZM21 60H33V54L51 63H39V69L21 60Z" fill="#FB8500"/>
</g>
</svg>
