<svg width="40" height="41" viewBox="0 0 40 41" fill="none" xmlns="http://www.w3.org/2000/svg">
<g clip-path="url(#clip0_1_2889)">
<path d="M30.4861 20.7095L29.5007 9.98945C29.4564 9.50695 29.0517 9.13773 28.5671 9.13773H22.8425V6.95969C22.8425 3.57008 20.0848 0.8125 16.6953 0.8125C13.3057 0.8125 10.5481 3.57008 10.5481 6.95969V9.13766H4.82324C4.33871 9.13766 3.93402 9.50688 3.88965 9.98938L1.85293 32.1487C1.77418 33.0061 2.03925 33.7955 2.61949 34.4316C3.19988 35.0677 3.96168 35.4039 4.82269 35.4039H19.8487C21.5761 38.268 24.7176 40.1875 28.2993 40.1875C33.7368 40.1875 38.1607 35.7637 38.1607 30.3261C38.1607 25.6399 34.8748 21.707 30.4861 20.7095ZM12.4231 6.95969C12.4231 4.60398 14.3396 2.6875 16.6953 2.6875C19.051 2.6875 20.9675 4.60398 20.9675 6.95969V9.13766H12.4231V6.95969ZM4.82269 33.5289C4.48933 33.5289 4.22941 33.4141 4.00472 33.1678C3.78004 32.9216 3.68965 32.6522 3.72011 32.3202L5.67855 11.0127H10.5481V12.722C10.5481 13.2398 10.9678 13.6595 11.4856 13.6595C12.0033 13.6595 12.4231 13.2398 12.4231 12.722V11.0127H20.9675V12.722C20.9675 13.2398 21.3873 13.6595 21.905 13.6595C22.4228 13.6595 22.8425 13.2398 22.8425 12.722V11.0127H27.712L28.5812 20.4691C28.4875 20.4664 28.3936 20.4648 28.2993 20.4648C22.8618 20.4648 18.4379 24.8886 18.4379 30.3262C18.4379 31.4468 18.6262 32.5242 18.9722 33.5289H4.82269ZM28.2993 38.3125C23.8955 38.3125 20.3128 34.7298 20.3128 30.3261C20.3128 25.9223 23.8955 22.3397 28.2993 22.3397C32.7029 22.3397 36.2857 25.9223 36.2857 30.3261C36.2857 34.7298 32.7029 38.3125 28.2993 38.3125ZM32.705 27.386C33.063 27.76 33.0501 28.3534 32.6761 28.7116L27.8889 33.295C27.7078 33.4684 27.4743 33.5553 27.2406 33.5553C27.0133 33.5553 26.786 33.4731 26.6065 33.3083L23.9367 30.8564C23.5553 30.5062 23.53 29.9131 23.8803 29.5318C24.2305 29.1503 24.8236 29.1252 25.2049 29.4754L27.2273 31.3327L31.3795 27.3571C31.7534 26.9991 32.3468 27.012 32.705 27.386Z" fill="#21334F"/>
</g>
<defs>
<clipPath id="clip0_1_2889">
<rect width="40" height="40" fill="white" transform="translate(0 0.5)"/>
</clipPath>
</defs>
</svg>
