<svg width="60" height="60" viewBox="0 0 60 60" fill="none" xmlns="http://www.w3.org/2000/svg">
<path d="M51 6C51 2.7 48.3 0 45 0H36V6H45V13.95L34.5 27H24V12H12C5.37 12 0 17.37 0 24V33H6C6 37.98 10.02 42 15 42C19.98 42 24 37.98 24 33H37.5L51 16.05V6ZM15 36C13.35 36 12 34.65 12 33H18C18 34.65 16.65 36 15 36ZM9 3H24V9H9V3ZM51 24C46.02 24 42 28.02 42 33C42 37.98 46.02 42 51 42C55.98 42 60 37.98 60 33C60 28.02 55.98 24 51 24ZM51 36C49.35 36 48 34.65 48 33C48 31.35 49.35 30 51 30C52.65 30 54 31.35 54 33C54 34.65 52.65 36 51 36ZM15 51H27V45L45 54H33V60L15 51Z" fill="#FB8500"/>
</svg>
