<svg width="78" height="78" viewBox="0 0 78 78" fill="none" xmlns="http://www.w3.org/2000/svg">
<path d="M48.3593 48.5427V53.3508H53.1674V48.5427H48.3593ZM20.4145 5.79843L8.39416 15.4147C7.59601 16.0494 7.49023 17.1456 7.49023 18.1072V26.9061C7.49023 29.6131 8.38455 32.1085 9.8943 34.1183V70.1793C9.8943 70.8169 10.1476 71.4283 10.5984 71.8792C11.0493 72.33 11.6608 72.5833 12.2984 72.5833H19.5106V46.1386C19.5106 45.501 19.7638 44.8895 20.2147 44.4387C20.6655 43.9878 21.277 43.7346 21.9146 43.7346H36.339C36.9766 43.7346 37.5881 43.9878 38.0389 44.4387C38.4898 44.8895 38.7431 45.501 38.7431 46.1386V72.5833H65.1878C65.8254 72.5833 66.4368 72.33 66.8877 71.8792C67.3385 71.4283 67.5918 70.8169 67.5918 70.1793V34.1183C69.1016 32.1085 69.9959 29.6131 69.9959 26.9061V18.088C69.9959 17.1264 69.8901 16.0494 69.092 15.4147L57.0716 5.79843C56.6461 5.45702 56.1171 5.2705 55.5715 5.26953H21.9146C21.369 5.2705 20.84 5.45702 20.4145 5.79843ZM12.2984 26.9061V19.6939H26.7227V26.9061C26.7227 28.8189 25.9629 30.6533 24.6103 32.0059C23.2578 33.3584 21.4233 34.1183 19.5106 34.1183C17.5978 34.1183 15.7633 33.3584 14.4108 32.0059C13.0582 30.6533 12.2984 28.8189 12.2984 26.9061ZM31.5309 26.9061V19.6939H45.9553V26.9061C45.9553 28.8189 45.1954 30.6533 43.8429 32.0059C42.4903 33.3584 40.6559 34.1183 38.7431 34.1183C36.8303 34.1183 34.9958 33.3584 33.6433 32.0059C32.2907 30.6533 31.5309 28.8189 31.5309 26.9061ZM50.7634 26.9061V19.6939H65.1878V26.9061C65.1878 28.8189 64.4279 30.6533 63.0754 32.0059C61.7228 33.3584 59.8884 34.1183 57.9756 34.1183C56.0628 34.1183 54.2283 33.3584 52.8758 32.0059C51.5232 30.6533 50.7634 28.8189 50.7634 26.9061ZM16.7459 14.8858L22.756 10.0777H29.2711L27.468 14.8858H16.7459ZM32.5983 14.8858L34.4013 10.0777H43.0223L44.6234 14.8858H32.5983ZM48.0901 10.0777H54.7253L60.7354 14.8858H49.6912L48.0901 10.0777ZM43.5512 46.1386C43.5512 45.501 43.8045 44.8895 44.2553 44.4387C44.7062 43.9878 45.3177 43.7346 45.9553 43.7346H55.5715C56.2091 43.7346 56.8206 43.9878 57.2714 44.4387C57.7223 44.8895 57.9756 45.501 57.9756 46.1386V55.7549C57.9756 56.3925 57.7223 57.004 57.2714 57.4548C56.8206 57.9057 56.2091 58.1589 55.5715 58.1589H45.9553C45.3177 58.1589 44.7062 57.9057 44.2553 57.4548C43.8045 57.004 43.5512 56.3925 43.5512 55.7549V46.1386ZM24.3187 72.5833H33.9349V48.5427H24.3187V72.5833Z" fill="#FB8500"/>
</svg>
